<?xml version="1.0" encoding="UTF-8"?> <svg xmlns="http://www.w3.org/2000/svg" viewBox="0 0 2394.92 336.32"><defs><style>.cls-1{fill:#fff;}</style></defs><title>Asset 1</title><g id="Layer_2" data-name="Layer 2"><g id="Layer_1-2" data-name="Layer 1"><rect class="cls-1" x="409.55" y="10.23" width="8.28" height="326.09"></rect><path class="cls-1" d="M470,1.92h31.78c18.9,0,37.39,7,37.39,34.65,0,28.76-20,35.06-37.53,35.06h-6.57v31.64H470Zm32.33,49.85c9.58,0,12.6-4.93,12.6-14.65,0-9.45-3-14.11-12.74-14.11h-7.12V51.77Z"></path><path class="cls-1" d="M553.81,1.92h33C609,1.92,623,11,623,35.34c0,12.6-5.75,22.32-15.34,26.84l18.49,41.09H599.83L584.21,68.76H578.6v34.51H553.81Zm32.32,47.66c8.49,0,12.6-3.7,12.6-13.7,0-9.72-4.11-12.87-12.6-12.87H578.6V49.58Z"></path><path class="cls-1" d="M635.72,52.59c0-37.39,19.72-52.59,42-52.59s41.91,15.2,41.91,52.59-19.72,52.6-41.91,52.6S635.72,90,635.72,52.59Zm58.34,0c0-20.27-5.2-30.95-16.3-30.95s-16.43,10.68-16.43,31,5.34,31.64,16.43,31.64S694.06,72.86,694.06,52.59Z"></path><path class="cls-1" d="M734.61,1.92h59.85V23.28H760.08V44h24.38V64H760.08v39.31H734.61Z"></path><path class="cls-1" d="M807.34,1.92h61.22V23.28H832.81V41h25.48V61H832.81V82.59H870.2v20.68H807.34Z"></path><path class="cls-1" d="M879.38,80.81,899.79,70.4c4.24,7.53,11,14.65,19.86,14.65,7.12,0,10.68-3.42,10.68-8.76,0-6.71-7.53-9.86-16.57-13.42-13.56-5.48-30.68-11.78-30.68-33.15C883.08,11.78,897.6,0,917.59,0c18.08,0,29.31,9.72,36,23.28L934,34.1c-4.38-8.49-9.73-13.28-17-13.28-6,0-9,3.29-9,7.67,0,6.16,6.57,9.45,14.92,13,13.84,5.75,32.33,12.19,32.33,33.69,0,15.62-11.78,30-35.61,30C898.28,105.19,886.5,94.92,879.38,80.81Z"></path><path class="cls-1" d="M965.53,80.81,985.94,70.4c4.25,7.53,11,14.65,19.86,14.65,7.12,0,10.68-3.42,10.68-8.76,0-6.71-7.53-9.86-16.57-13.42-13.56-5.48-30.68-11.78-30.68-33.15C969.23,11.78,983.75,0,1003.75,0c18.07,0,29.31,9.72,36,23.28L1020.18,34.1c-4.38-8.49-9.72-13.28-17-13.28-6,0-9,3.29-9,7.67,0,6.16,6.57,9.45,14.93,13,13.83,5.75,32.32,12.19,32.32,33.69,0,15.62-11.78,30-35.61,30C984.43,105.19,972.65,94.92,965.53,80.81Z"></path><path class="cls-1" d="M1057.57,1.92h25.48V103.27h-25.48Z"></path><path class="cls-1" d="M1098.53,52.59c0-37.39,19.72-52.59,42-52.59s41.91,15.2,41.91,52.59-19.72,52.6-41.91,52.6S1098.53,90,1098.53,52.59Zm58.34,0c0-20.27-5.2-30.95-16.3-30.95s-16.43,10.68-16.43,31,5.34,31.64,16.43,31.64S1156.87,72.86,1156.87,52.59Z"></path><path class="cls-1" d="M1197.42,1.92h25.47l19,37.25c3.15,6.16,4.52,9,7.94,17.12h.28V1.92h23V103.27H1249.6l-22.46-41.09a126.37,126.37,0,0,1-6.44-13h-.27v54.1h-23Z"></path><path class="cls-1" d="M1309.18,103.27h-23.69L1315.07,1.51h24.79l29.58,101.76h-25.61l-4.24-17.12h-26ZM1333,58.89c-2.46-10-4.52-16.57-6-25.88h-.28c-1.51,9.45-3.7,15.75-6.3,25.88l-1.92,7.67h16.3Z"></path><path class="cls-1" d="M1381.36,1.92h25.48V82.59h37v20.68h-62.46Z"></path><path class="cls-1" d="M1527.23,103.27h-23.69L1533.12,1.51h24.79l29.59,101.76h-25.62l-4.24-17.12h-26Zm23.83-44.38c-2.46-10-4.52-16.57-6-25.88h-.28c-1.5,9.45-3.7,15.75-6.3,25.88l-1.91,7.67h16.29Z"></path><path class="cls-1" d="M1594.62,80.81,1615,70.4c4.24,7.53,11,14.65,19.86,14.65,7.12,0,10.68-3.42,10.68-8.76,0-6.71-7.53-9.86-16.57-13.42-13.56-5.48-30.68-11.78-30.68-33.15,0-17.94,14.52-29.72,34.51-29.72,18.08,0,29.31,9.72,36,23.28L1649.27,34.1c-4.38-8.49-9.72-13.28-17-13.28-6,0-9,3.29-9,7.67,0,6.16,6.57,9.45,14.92,13,13.84,5.75,32.33,12.19,32.33,33.69,0,15.62-11.78,30-35.61,30C1613.52,105.19,1601.74,94.92,1594.62,80.81Z"></path><path class="cls-1" d="M1683.1,80.81l20.41-10.41c4.25,7.53,11,14.65,19.86,14.65,7.12,0,10.68-3.42,10.68-8.76,0-6.71-7.53-9.86-16.57-13.42-13.56-5.48-30.68-11.78-30.68-33.15,0-17.94,14.52-29.72,34.51-29.72,18.08,0,29.31,9.72,36,23.28L1737.75,34.1c-4.38-8.49-9.72-13.28-17-13.28-6,0-9,3.29-9,7.67,0,6.16,6.57,9.45,14.93,13,13.83,5.75,32.32,12.19,32.32,33.69,0,15.62-11.78,30-35.61,30C1702,105.19,1690.22,94.92,1683.1,80.81Z"></path><path class="cls-1" d="M1771.72,52.59c0-37.39,19.72-52.59,42-52.59s41.91,15.2,41.91,52.59-19.72,52.6-41.91,52.6S1771.72,90,1771.72,52.59Zm58.35,0c0-20.27-5.21-30.95-16.3-30.95s-16.44,10.68-16.44,31,5.34,31.64,16.44,31.64S1830.07,72.86,1830.07,52.59Z"></path><path class="cls-1" d="M1869,52.59C1869,15.2,1886.22,0,1910.05,0s33.29,13.83,36,36.29l-24,4.25c-1.92-13-4.8-18.9-12.88-18.9-10.41,0-14.65,10.27-14.65,31s4.52,31.64,14.93,31.64c8.21,0,11.5-5.34,13.69-20.27l24,3.84c-3.56,20.82-13,37.25-37.8,37.25C1885.54,105.05,1869,90,1869,52.59Z"></path><path class="cls-1" d="M1964.16,1.92h25.47V103.27h-25.47Z"></path><path class="cls-1" d="M2028.26,103.27h-23.7L2034.15,1.51h24.79l29.58,101.76h-25.61l-4.25-17.12h-26Zm23.83-44.38c-2.47-10-4.52-16.57-6-25.88h-.27c-1.51,9.45-3.7,15.75-6.3,25.88l-1.92,7.67h16.3Z"></path><path class="cls-1" d="M2110,23.28h-23.14V1.92h71.77V23.28H2135.5v80H2110Z"></path><path class="cls-1" d="M2174.54,1.92H2200V103.27h-25.47Z"></path><path class="cls-1" d="M2217.82,52.59c0-37.39,19.72-52.59,42-52.59s41.91,15.2,41.91,52.59-19.73,52.6-41.91,52.6S2217.82,90,2217.82,52.59Zm58.34,0c0-20.27-5.2-30.95-16.29-30.95s-16.44,10.68-16.44,31,5.34,31.64,16.44,31.64S2276.16,72.86,2276.16,52.59Z"></path><path class="cls-1" d="M2319,1.92h25.48l19,37.25c3.15,6.16,4.52,9,7.94,17.12h.28V1.92h23V103.27h-23.56l-22.46-41.09a126.37,126.37,0,0,1-6.44-13H2342v54.1h-23Z"></path><path class="cls-1" d="M470,124.21h59.86v21.37H495.46v20.68h24.38v20H495.46v39.31H470Z"></path><path class="cls-1" d="M532.85,174.89c0-37.39,19.72-52.59,42-52.59s41.91,15.2,41.91,52.59-19.72,52.59-41.91,52.59S532.85,212.28,532.85,174.89Zm58.35,0c0-20.27-5.21-30.95-16.3-30.95s-16.44,10.68-16.44,30.95,5.35,31.64,16.44,31.64S591.2,195.16,591.2,174.89Z"></path><path class="cls-1" d="M627.5,124.21h33c22.19,0,36.16,9,36.16,33.42,0,12.6-5.75,22.33-15.34,26.85l18.49,41.09H673.52L657.9,191.05h-5.61v34.52H627.5Zm32.32,47.67c8.49,0,12.6-3.7,12.6-13.7,0-9.72-4.11-12.87-12.6-12.87h-7.53v26.57Z"></path><path class="cls-1" d="M742.82,124.21H768.3V225.57H742.82Z"></path><path class="cls-1" d="M783.5,124.21H809l19,37.26c3.15,6.16,4.52,9,8,17.12h.27V124.21h23V225.57H835.68l-22.46-41.09a130.85,130.85,0,0,1-6.44-13h-.27v54.11h-23Z"></path><path class="cls-1" d="M874.17,124.21H902.8c26.84,0,48.21,9.45,48.21,50.27,0,41.5-21.78,51.09-48.21,51.09H874.17ZM905,204.47c16,0,20.41-7.39,20.41-30,0-21.64-4.39-28.9-20.55-28.9h-5.2v58.89Z"></path><path class="cls-1" d="M960.05,189.68V124.21h25.48v64.24c0,12.74,3.42,17.39,11.5,17.39s11.37-4.79,11.37-17.25V124.21h24.24v65.33c0,24.79-10.41,37.67-36,37.67S960.05,214.06,960.05,189.68Z"></path><path class="cls-1" d="M1040.45,203.1l20.41-10.41c4.25,7.54,11,14.66,19.86,14.66,7.12,0,10.68-3.42,10.68-8.77,0-6.71-7.53-9.86-16.57-13.42-13.56-5.48-30.68-11.78-30.68-33.14,0-18,14.52-29.72,34.52-29.72,18.07,0,29.31,9.72,36,23.28L1095.1,156.4c-4.38-8.49-9.72-13.29-17-13.29-6,0-9,3.29-9,7.67,0,6.17,6.57,9.45,14.93,13,13.83,5.76,32.32,12.19,32.32,33.7,0,15.61-11.78,30-35.61,30C1059.35,227.48,1047.57,217.21,1040.45,203.1Z"></path><path class="cls-1" d="M1142.36,145.58h-23.15V124.21H1191v21.37h-23.15v80h-25.47Z"></path><path class="cls-1" d="M1199.61,124.21h33c22.18,0,36.15,9,36.15,33.42,0,12.6-5.75,22.33-15.34,26.85l18.49,41.09h-26.29L1230,191.05h-5.61v34.52h-24.79Zm32.32,47.67c8.49,0,12.6-3.7,12.6-13.7,0-9.72-4.11-12.87-12.6-12.87h-7.53v26.57Z"></path><path class="cls-1" d="M1282.88,124.21h25.48V225.57h-25.48Z"></path><path class="cls-1" d="M1340.41,225.57h-23.69L1346.3,123.8h24.79l29.58,101.77h-25.61l-4.24-17.12h-26Zm23.83-44.38c-2.46-10-4.52-16.57-6-25.89h-.28c-1.51,9.45-3.7,15.75-6.3,25.89l-1.92,7.67H1366Z"></path><path class="cls-1" d="M1408.35,124.21h25.47v80.67h37v20.69h-62.45Z"></path><path class="cls-1" d="M1507.65,124.21h28.62c26.85,0,48.21,9.45,48.21,50.27,0,41.5-21.77,51.09-48.21,51.09h-28.62Zm30.81,80.26c16,0,20.41-7.39,20.41-30,0-21.64-4.38-28.9-20.54-28.9h-5.21v58.89Z"></path><path class="cls-1" d="M1598.46,124.21h25.47V225.57h-25.47Z"></path><path class="cls-1" d="M1637.77,203.1l20.4-10.41c4.25,7.54,11,14.66,19.86,14.66,7.13,0,10.69-3.42,10.69-8.77,0-6.71-7.54-9.86-16.58-13.42-13.56-5.48-30.68-11.78-30.68-33.14,0-18,14.52-29.72,34.52-29.72,18.08,0,29.31,9.72,36,23.28l-19.59,10.82c-4.38-8.49-9.72-13.29-17-13.29-6,0-9,3.29-9,7.67,0,6.17,6.58,9.45,14.93,13,13.83,5.76,32.32,12.19,32.32,33.7,0,15.61-11.78,30-35.61,30C1656.67,227.48,1644.89,217.21,1637.77,203.1Z"></path><path class="cls-1" d="M1742.41,145.58h-23.15V124.21H1791v21.37h-23.15v80h-25.47Z"></path><path class="cls-1" d="M1802.4,124.21h33c22.19,0,36.16,9,36.16,33.42,0,12.6-5.76,22.33-15.34,26.85l18.49,41.09h-26.3l-15.61-34.52h-5.62v34.52H1802.4Zm32.32,47.67c8.5,0,12.61-3.7,12.61-13.7,0-9.72-4.11-12.87-12.61-12.87h-7.53v26.57Z"></path><path class="cls-1" d="M1888.42,124.21h25.47V225.57h-25.47Z"></path><path class="cls-1" d="M1931.83,124.21H1969c15.75,0,32.73,3.7,32.73,25.2,0,15.21-8.21,21.1-16.57,23.42v.28c10.69,2.19,18.63,7.67,18.63,24.65,0,21.78-18.08,27.81-34.1,27.81h-37.81Zm35.34,41c7.4,0,10.68-3,10.68-10.28s-3.28-10.13-10.54-10.13h-10.69v20.41Zm.55,40.81c8.08,0,11.78-4.38,11.78-11.78,0-7.81-4-11.64-12.06-11.64h-10.82V206Z"></path><path class="cls-1" d="M2016.07,189.68V124.21h25.48v64.24c0,12.74,3.42,17.39,11.5,17.39s11.37-4.79,11.37-17.25V124.21h24.24v65.33c0,24.79-10.41,37.67-36,37.67S2016.07,214.06,2016.07,189.68Z"></path><path class="cls-1" d="M2121.67,145.58h-23.14V124.21h71.76v21.37h-23.14v80h-25.48Z"></path><path class="cls-1" d="M2182.35,124.21h25.47V225.57h-25.47Z"></path><path class="cls-1" d="M2221.8,174.89c0-37.39,19.72-52.59,42-52.59s41.91,15.2,41.91,52.59-19.72,52.59-41.91,52.59S2221.8,212.28,2221.8,174.89Zm58.34,0c0-20.27-5.2-30.95-16.3-30.95s-16.43,10.68-16.43,30.95,5.34,31.64,16.43,31.64S2280.14,195.16,2280.14,174.89Z"></path><path class="cls-1" d="M2319.18,124.21h25.47l19,37.26c3.15,6.16,4.52,9,7.94,17.12h.28V124.21h23V225.57h-23.56l-22.46-41.09a126.62,126.62,0,0,1-6.44-13h-.27v54.11h-23Z"></path><path class="cls-1" d="M464.65,268.06h47.12l.08,15.78H509.6q-1.11-8.46-6.35-11.46c-2-1.09-4.89-1.7-8.79-1.8v41.23c0,2.88.5,4.8,1.51,5.74s3.1,1.41,6.29,1.41v2h-27.9v-2c3.06,0,5.09-.47,6.09-1.43s1.51-2.86,1.51-5.72V270.58c-3.82.1-6.75.71-8.79,1.8q-5.61,3.08-6.34,11.46h-2.25Z"></path><path class="cls-1" d="M550.26,321v-2a11.06,11.06,0,0,0,4.77-.91c1.46-.82,2.18-2.35,2.18-4.59V275.55q0-3.42-2.25-4.59a12,12,0,0,0-4.7-.91v-2h45.09v15.78h-1.91q-1.49-7.56-5.06-10.35t-13-2.79c-2.4,0-3.92.25-4.57.74s-1,1.49-1,3v18.12q6.69.08,9.06-2.43t3.63-9.15h2v26.44h-2q-.84-6.67-3.42-9.42t-9.27-2.73v19c0,1.65.43,2.78,1.28,3.38s2.61.9,5.26.9q7.49,0,12.23-2.91T597,304.67h2.17L596,321Z"></path><path class="cls-1" d="M636.66,319a20.32,20.32,0,0,0,4.28-1.1,10.44,10.44,0,0,0,3.86-3.21l13.29-17.27L643,274.59a15.36,15.36,0,0,0-3-3.45,5.82,5.82,0,0,0-3.25-1.09v-2h27.1v2a22.18,22.18,0,0,0-5,.61,1.85,1.85,0,0,0-1.24,2,3,3,0,0,0,.31,1.33,11.75,11.75,0,0,0,.87,1.53l7.48,11.3q6.56-8.51,7.85-10.57a7,7,0,0,0,1.3-3.44,2.33,2.33,0,0,0-1.91-2.29,16.64,16.64,0,0,0-3.82-.46v-2h19.56v2a12.22,12.22,0,0,0-8,3.7q-3,3.18-12.92,16.12l14.55,22a26.73,26.73,0,0,0,3.93,5.69,6.51,6.51,0,0,0,3.35,1.42v2H663.45v-2a25.83,25.83,0,0,0,4.55-.45,2,2,0,0,0,1.72-2,5.18,5.18,0,0,0-.36-1.59,13.36,13.36,0,0,0-1.28-2.46l-8-12-3,3.73c-2.49,3.19-4.18,5.41-5.07,6.68q-2.21,3.4-2.21,4.82c0,1.37.9,2.32,2.71,2.83a13,13,0,0,0,3.63.45v2H636.66Z"></path><path class="cls-1" d="M727.54,319a5.86,5.86,0,0,0,4.55-2.56,35.06,35.06,0,0,0,3.17-6.57L752.65,267h2.18l17.47,41.12a55.83,55.83,0,0,0,4.39,8.93,4.6,4.6,0,0,0,4.13,1.92v2H755.48v-2a18,18,0,0,0,5-.64c.8-.34,1.2-1.18,1.2-2.53a10,10,0,0,0-.61-2.79c-.26-.74-.6-1.63-1-2.67l-2-4.74H740.5c-1.15,3.11-1.89,5.13-2.22,6.08a15.46,15.46,0,0,0-1,4.39c0,1.12.75,1.94,2.26,2.45a14.81,14.81,0,0,0,4,.45v2h-16Zm29.38-16.47-7.52-18.11h-.66l-7.06,18.11Z"></path><path class="cls-1" d="M819.61,302.68h2.25q1.88,8.77,6,12.76a13.39,13.39,0,0,0,9.54,4q5.23,0,7.44-2.73a9,9,0,0,0,2.21-5.76,7.58,7.58,0,0,0-2.31-5.73,27.91,27.91,0,0,0-6.17-3.79l-5-2.52q-7.43-3.75-10.48-7.42a13.74,13.74,0,0,1-3-9.07,16.71,16.71,0,0,1,4-10.71q4.05-5,12.39-5a26.36,26.36,0,0,1,8.21,1.3,29.71,29.71,0,0,0,4.53,1.3,2,2,0,0,0,1.76-.74,6.36,6.36,0,0,0,.79-2h2.34v17H852a23.8,23.8,0,0,0-5.4-10.2,12.18,12.18,0,0,0-9.4-4.28,8.52,8.52,0,0,0-6.14,2.16,7,7,0,0,0-2.26,5.26c0,2.47.7,4.32,2.12,5.54s4.49,3.09,9.32,5.51l5.77,2.91a22.72,22.72,0,0,1,6.16,4.32,14.86,14.86,0,0,1,4.3,10.77,16.72,16.72,0,0,1-4.61,11.17q-4.61,5.25-14.75,5.25a26.25,26.25,0,0,1-4.72-.44,24.77,24.77,0,0,1-4.72-1.36l-1.5-.57c-.35-.1-.69-.18-1-.25a4.62,4.62,0,0,0-.82-.09,1.81,1.81,0,0,0-1.66.7,7.42,7.42,0,0,0-.79,2h-2.25Z"></path><path class="cls-1" d="M945.49,319A5.86,5.86,0,0,0,950,316.4a35.06,35.06,0,0,0,3.17-6.57L970.6,267h2.18l17.46,41.12a56.48,56.48,0,0,0,4.4,8.93,4.6,4.6,0,0,0,4.13,1.92v2H973.43v-2a17.87,17.87,0,0,0,5-.64c.81-.34,1.21-1.18,1.21-2.53a10.38,10.38,0,0,0-.61-2.79c-.26-.74-.6-1.63-1-2.67l-2-4.74H958.45c-1.15,3.11-1.89,5.13-2.22,6.08a15.46,15.46,0,0,0-1,4.39c0,1.12.75,1.94,2.25,2.45a15,15,0,0,0,4,.45v2h-16Zm29.38-16.47-7.53-18.11h-.65l-7.07,18.11Z"></path><path class="cls-1" d="M1051,284.14a14.27,14.27,0,0,1-.92-5,11.34,11.34,0,0,1,3.94-8.86q3.93-3.53,11.54-3.52,6.3,0,9.59,2.83a8.56,8.56,0,0,1,3.29,6.68,8.69,8.69,0,0,1-3.18,6.74,26.37,26.37,0,0,1-8.62,4.76l11.84,16.72a66.38,66.38,0,0,0,4.26-6,10.31,10.31,0,0,0,1.65-5.17c0-1.3-.31-2.13-.92-2.48a14.33,14.33,0,0,0-4.29-1V288h16.34v1.87c-2.15.28-3.6.75-4.33,1.4s-2.13,2.77-4.21,6.36a43.2,43.2,0,0,1-2.58,3.79q-1,1.46-4.11,5.58a32.94,32.94,0,0,0,5,5.54,6.8,6.8,0,0,0,4.31,1.64,4.79,4.79,0,0,0,3.2-1.11,8,8,0,0,0,1.46-1.91l1.53.92a22.65,22.65,0,0,1-3.73,5.88,11.75,11.75,0,0,1-8.91,4.13,12,12,0,0,1-7-2.37,32.12,32.12,0,0,1-4.84-4.55,45.19,45.19,0,0,1-7.36,4.51,24.14,24.14,0,0,1-10.35,2.37,15.81,15.81,0,0,1-10.18-3.66,11.9,11.9,0,0,1-4.55-9.74,16,16,0,0,1,5.63-12.19,42.38,42.38,0,0,1,9.72-6A44.29,44.29,0,0,1,1051,284.14Zm15,31a32.36,32.36,0,0,0,3.46-2.14q-3.84-5.26-5.11-7.08t-5.07-7.5l-3.76-5.61a18.51,18.51,0,0,0-4.15,3.05,6.91,6.91,0,0,0-1.65,4.74q0,4.77,3.89,10.12t8.55,5.34A8.73,8.73,0,0,0,1066,315.1Zm2.53-31.46a5.77,5.77,0,0,0,2-4.62,12.76,12.76,0,0,0-1.91-6.38,5.88,5.88,0,0,0-5.31-3.32,4,4,0,0,0-4.09,4.55,10.26,10.26,0,0,0,1.29,4.73,56.52,56.52,0,0,0,4.52,6.83A10.49,10.49,0,0,0,1068.56,283.64Z"></path><path class="cls-1" d="M1135.28,319q4.47,0,5.8-1.58a6.89,6.89,0,0,0,1.34-4.64V275.55c0-2.13-.51-3.52-1.53-4.19a12.26,12.26,0,0,0-5.42-1.31v-2h19.72l15.4,36.23h.65l15.31-36.23h19.73v2q-4,.3-5.43,1.46c-1,.77-1.45,2.67-1.45,5.68v34.63c0,2.88.49,4.76,1.45,5.65s2.78,1.39,5.43,1.49v2h-26v-2a11.07,11.07,0,0,0,5.24-1.16q1.76-1.05,1.76-4.61V274.94h-.58l-19.18,46h-2.1l-19.38-45.09h-.34v35.39c0,2.61.48,4.51,1.45,5.72s3.11,1.87,6.42,2v2h-18.3Z"></path><path class="cls-1" d="M1323.76,268.06v2q-4.54.15-6.08,1.4t-1.53,5.74v26.23a24,24,0,0,0,1.42,9.23q2.55,6,9.82,6.05,9,0,12.19-6.7c1.17-2.45,1.76-5.87,1.76-10.29V277.77q0-4.22-1.55-5.79t-6.06-1.93v-2h17.2v2q-3.75.72-5,1.77t-1.2,4.84v25q0,10-4.82,15.4t-15.13,5.43q-13.49,0-18.46-8.07-2.64-4.29-2.64-11.06v-26.2q0-4.41-1.16-5.55t-5.26-1.59v-2Z"></path><path class="cls-1" d="M1388,319c2.9-.07,4.78-.63,5.62-1.66a7.08,7.08,0,0,0,1.26-4.56V275.67q-3.6-4-4.44-4.72a4.23,4.23,0,0,0-2.29-.9v-2h16.59l26.9,32.7h.38v-23q0-4-1.44-5.68t-5.78-2v-2h16.82v2c-2.45.4-4.09.95-4.91,1.63s-1.25,2.22-1.25,4.6V322.4h-2.17l-34.44-41.84h-.53v30.69q0,3.6,1,5.1,1.58,2.43,6.42,2.61v2H1388Z"></path><path class="cls-1" d="M1478.76,319a12,12,0,0,0,4.78-.8q2.37-1.21,2.37-4.7V275.55c0-2.3-.75-3.85-2.25-4.63a12.81,12.81,0,0,0-4.9-.87v-2h27.37v2a14.16,14.16,0,0,0-5.05.83c-1.53.79-2.29,2.34-2.29,4.67v37.91q0,3.29,1.83,4.4a10.88,10.88,0,0,0,5.51,1.1v2h-27.37Z"></path><path class="cls-1" d="M1569.68,268.06V270a22,22,0,0,0-5.44.71c-.83.32-1.25,1.12-1.25,2.39a6.51,6.51,0,0,0,.1,1.13,4.88,4.88,0,0,0,.36,1.13l12.41,29h-.12L1586,277.78c.23-.58.43-1.18.61-1.8a8.5,8.5,0,0,0,.46-2.41c0-1.48-.44-2.41-1.32-2.78a20.09,20.09,0,0,0-5.37-.82v-1.91h16.67V270a7.18,7.18,0,0,0-4.3,1.66,13.4,13.4,0,0,0-2.77,4.76l-17.85,46h-2.07l-20.14-46.89a12.9,12.9,0,0,0-2.5-4.07,6.31,6.31,0,0,0-4-1.47v-1.91Z"></path><path class="cls-1" d="M1634.15,321v-2a11.11,11.11,0,0,0,4.78-.91q2.17-1.23,2.18-4.59V275.55q0-3.42-2.26-4.59a11.9,11.9,0,0,0-4.7-.91v-2h45.1v15.78h-1.91c-1-5-2.68-8.49-5.07-10.35s-6.72-2.79-13-2.79c-2.39,0-3.92.25-4.57.74s-1,1.49-1,3v18.12q6.69.08,9.06-2.43t3.63-9.15h2v26.44h-2q-.84-6.67-3.42-9.42t-9.27-2.73v19c0,1.65.43,2.78,1.28,3.38s2.6.9,5.26.9q7.48,0,12.22-2.91t8.41-10.89h2.18L1679.9,321Z"></path><path class="cls-1" d="M1720.56,319q4-.18,5.43-1.49c1-.86,1.45-2.75,1.45-5.65V277.19c0-3-.57-5-1.72-5.89-.76-.61-2.48-1-5.16-1.25v-2h25.19a40.56,40.56,0,0,1,12.68,1.64q9.4,3.33,9.4,12a11.87,11.87,0,0,1-4.92,10.05,19.28,19.28,0,0,1-8,3.51l16.63,22.28a3.24,3.24,0,0,0,1.37,1.21,6.22,6.22,0,0,0,1.8.36V321h-16.33l-18.26-24.46h0v15.33q0,4.13,1.37,5.56T1747,319v2h-26.45Zm30.55-27.15q3.32-2,3.31-9.46a16.9,16.9,0,0,0-1.26-7.18q-2.17-4.47-8-4.47-3.14,0-4.11.78a3.11,3.11,0,0,0-1,2.58V294Q1747.81,293.85,1751.11,291.81Z"></path><path class="cls-1" d="M1812.78,302.68H1815q1.88,8.77,6,12.76a13.39,13.39,0,0,0,9.54,4q5.23,0,7.44-2.73a9,9,0,0,0,2.21-5.76,7.58,7.58,0,0,0-2.31-5.73,27.91,27.91,0,0,0-6.17-3.79l-5-2.52q-7.42-3.75-10.48-7.42a13.74,13.74,0,0,1-3-9.07,16.71,16.71,0,0,1,4-10.71c2.7-3.31,6.82-5,12.39-5a26.36,26.36,0,0,1,8.21,1.3,29.71,29.71,0,0,0,4.53,1.3,2,2,0,0,0,1.76-.74,6.36,6.36,0,0,0,.79-2h2.34v17h-2.18a23.8,23.8,0,0,0-5.4-10.2,12.18,12.18,0,0,0-9.4-4.28,8.52,8.52,0,0,0-6.14,2.16,7,7,0,0,0-2.26,5.26c0,2.47.7,4.32,2.12,5.54s4.49,3.09,9.32,5.51l5.77,2.91a22.72,22.72,0,0,1,6.16,4.32,14.86,14.86,0,0,1,4.3,10.77,16.72,16.72,0,0,1-4.61,11.17q-4.6,5.25-14.75,5.25a26.25,26.25,0,0,1-4.72-.44,24.77,24.77,0,0,1-4.72-1.36l-1.5-.57c-.35-.1-.69-.18-1-.25a4.62,4.62,0,0,0-.82-.09,1.81,1.81,0,0,0-1.66.7,7.42,7.42,0,0,0-.79,2h-2.25Z"></path><path class="cls-1" d="M1889,319a12,12,0,0,0,4.78-.8c1.58-.81,2.36-2.38,2.36-4.7V275.55c0-2.3-.75-3.85-2.25-4.63a12.79,12.79,0,0,0-4.89-.87v-2h27.36v2a14.1,14.1,0,0,0-5,.83c-1.53.79-2.3,2.34-2.3,4.67v37.91c0,2.19.62,3.66,1.84,4.4a10.84,10.84,0,0,0,5.5,1.1v2H1889Z"></path><path class="cls-1" d="M1954.48,268.06h47.12l.08,15.78h-2.25q-1.11-8.46-6.35-11.46c-2-1.09-4.89-1.7-8.79-1.8v41.23c0,2.88.51,4.8,1.51,5.74s3.1,1.41,6.29,1.41v2h-27.9v-2c3.06,0,5.09-.47,6.1-1.43s1.51-2.86,1.51-5.72V270.58c-3.83.1-6.76.71-8.79,1.8q-5.62,3.08-6.35,11.46h-2.25Z"></path><path class="cls-1" d="M2066.15,268.06v2a25.14,25.14,0,0,0-5.19.61,1.54,1.54,0,0,0-1.15,1.6,3.72,3.72,0,0,0,.21,1.17c.14.42.46,1.18,1,2.27l10.35,18.81h.09l8.4-13.76a29,29,0,0,0,1.69-3.1,11,11,0,0,0,1.33-4.13,2.69,2.69,0,0,0-1.64-2.75,20.12,20.12,0,0,0-4.89-.72v-2h17.2v2a15.11,15.11,0,0,0-3,.8,6,6,0,0,0-2.36,2.22l-15,24.34v14.41q0,4.47,1.52,5.75c1,.85,2.92,1.32,5.71,1.39v2h-27.14v-2q4.36-.1,5.79-1.49c1-.91,1.43-2.8,1.43-5.65V300.31l-14.29-26a8.31,8.31,0,0,0-3.48-3.6,6.82,6.82,0,0,0-2.79-.68v-2Z"></path></g><g id="Layer_2-2" data-name="Layer 2"><polygon class="cls-1" points="347.98 116.38 313.11 116.38 311.08 116.38 310.2 118.2 284.9 170.84 259.53 118.2 258.67 116.38 256.64 116.38 222.97 116.38 219.74 116.38 219.74 119.58 219.74 137.53 219.74 140.74 222.97 140.74 228.72 140.74 228.72 216.11 222.49 216.11 219.26 216.11 219.26 219.33 219.26 237.27 219.26 240.49 222.49 240.49 260.33 240.49 263.55 240.49 263.55 237.27 263.55 219.33 263.55 216.11 260.33 216.11 253.78 216.11 253.78 162.63 282.05 220.94 284.92 226.89 287.83 220.94 316.4 162.5 316.4 216.11 310.14 216.11 306.92 216.11 306.92 219.33 306.92 237.27 306.92 240.49 310.14 240.49 347.98 240.49 351.2 240.49 351.2 237.27 351.2 219.33 351.2 216.11 347.98 216.11 341.47 216.11 341.47 140.74 347.98 140.74 351.2 140.74 351.2 137.53 351.2 119.58 351.2 116.38 347.98 116.38"></polygon><path class="cls-1" d="M128.24,216H118.19l-32.77-75.7h6.27v-24.4H39.1v24.4h7.24L13.6,216H0v24.37H47.74V216h-7l5.44-12.55H85.6L91.05,216H83.68v24.37h47.78V216Zm-53.1-37H56.74l9.15-21.16Z"></path><path class="cls-1" d="M307.94,21.75H38.72V100H91.88V70h56.68V257h-30v53.16H231.78V257h-30V70h56.3v29.7h53.56V21.75h-3.71ZM209.4,279l11.22-11.53v31.71L209.4,288.4Zm-18.73-10.72-11.22,11.08V48l11.22,11.23ZM60.91,43.85,49.33,32.61H294.9L280.38,43.85ZM301,89.44,289.75,78.72V50.15L301,38.6Z"></path><path class="cls-1" d="M244.19,299.09A10.89,10.89,0,1,1,255.07,310h0A10.91,10.91,0,0,1,244.19,299.09Zm19.13,0a8.25,8.25,0,1,0-8.25,8.77,8.37,8.37,0,0,0,8.26-8.48C263.33,299.28,263.32,299.19,263.32,299.09Zm-12.43-6.27h4.58c3,0,4.54,1,4.54,3.62a3.07,3.07,0,0,1-2.81,3.32h-.41l3.31,5.4h-2.35l-3.2-5.27h-1.38v5.32H251Zm2.3,5.27h2.09c1.36,0,2.54-.17,2.54-1.82s-1.32-1.7-2.49-1.7h-2.1v3.52Z"></path></g></g></svg> 